<svg width="13" height="13" viewBox="0 0 13 13" fill="none" xmlns="http://www.w3.org/2000/svg">
<g clip-path="url(#clip0)">
<path d="M7.88847 2.35441C8.185 2.04152 8.40383 1.69882 8.54504 1.32616C8.68152 0.953513 8.74977 0.615772 8.74977 0.312558C8.74977 0.292825 8.74858 0.267702 8.74623 0.238023C8.74375 0.208345 8.7427 0.18365 8.7427 0.163488C8.738 0.148581 8.73213 0.121248 8.72506 0.0813535C8.71801 0.0417519 8.71213 0.0144187 8.70741 -0.000488281C7.87907 0.203225 7.29086 0.570916 6.94261 1.10256C6.58962 1.63905 6.40606 2.27753 6.39194 3.01785C6.70714 2.9879 6.95186 2.94595 7.12616 2.89128C7.3803 2.80159 7.63432 2.62285 7.88847 2.35441Z" fill="white"/>
<path d="M10.2885 8.11539C9.96372 7.62377 9.80135 7.06976 9.80135 6.45338C9.80135 5.89204 9.95417 5.37792 10.2602 4.91073C10.425 4.65747 10.6932 4.36431 11.065 4.03126C10.8203 3.71341 10.5756 3.46511 10.3308 3.28596C9.8884 2.96339 9.38716 2.80151 8.82721 2.80151C8.49304 2.80151 8.08594 2.88626 7.60586 3.05507C7.14461 3.22414 6.80811 3.30833 6.59643 3.30833C6.43643 3.30833 6.11168 3.23379 5.62219 3.08475C5.12801 2.93568 4.71162 2.86114 4.37273 2.86114C3.56321 2.86114 2.89489 3.21889 2.36788 3.93451C1.83605 4.65995 1.57013 5.58894 1.57013 6.72167C1.57013 7.92397 1.91605 9.17345 2.60793 10.4704C3.30908 11.7572 4.01739 12.4005 4.73279 12.4005C4.97282 12.4005 5.28332 12.316 5.66455 12.1472C6.04578 11.9832 6.3798 11.9013 6.66691 11.9013C6.97284 11.9013 7.32805 11.9808 7.73293 12.1396C8.16109 12.2986 8.49056 12.378 8.72119 12.378C9.32347 12.378 9.92828 11.8912 10.5354 10.9175C10.9308 10.2965 11.2202 9.6753 11.4038 9.05435C10.9849 8.92034 10.6132 8.6073 10.2885 8.11539Z" fill="white"/>
</g>
<defs>
<clipPath id="clip0">
<rect width="12.5611" height="12.5611" fill="white"/>
</clipPath>
</defs>
</svg>
