<svg fill="none" height="13" viewBox="0 0 13 13" width="13" xmlns="http://www.w3.org/2000/svg" xmlns:xlink="http://www.w3.org/1999/xlink"><clipPath id="a"><path d="m0 0h12.5611v12.5611h-12.5611z"/></clipPath><g clip-path="url(#a)" fill="#fff"><path d="m7.88847 2.35441c.29653-.31289.51536-.65559.65657-1.02825.13648-.372647.20473-.710388.20473-1.013602 0-.019733-.00119-.044856-.00354-.074535-.00248-.029678-.00353-.054373-.00353-.074535-.0047-.014907-.01057-.04224-.01764-.0821345-.00705-.0396016-.01293-.0669348-.01765-.08184178-.82834.20371328-1.41655.57140428-1.7648 1.10304828-.35299.53649-.53655 1.17497-.55067 1.91529.3152-.02995.55992-.0719.73422-.12657.25414-.08969.50816-.26843.76231-.53687z"/><path d="m10.2885 8.11539c-.32478-.49162-.48715-1.04563-.48715-1.66201 0-.56134.15282-1.07546.45885-1.54265.1648-.25326.433-.54642.8048-.87947-.2447-.31785-.4894-.56615-.7342-.7453-.4424-.32257-.94364-.48445-1.50359-.48445-.33417 0-.74127.08475-1.22135.25356-.46125.16907-.79775.25326-1.00943.25326-.16 0-.48475-.07454-.97424-.22358-.49418-.14907-.91057-.22361-1.24946-.22361-.80952 0-1.47784.35775-2.00485 1.07337-.53183.72544-.79775 1.65443-.79775 2.78716 0 1.2023.34592 2.45178 1.0378 3.74873.70115 1.2868 1.40946 1.9301 2.12486 1.9301.24003 0 .55053-.0845.93176-.2533.38123-.164.71525-.2459 1.00236-.2459.30593 0 .66114.0795 1.06602.2383.42816.159.75763.2384.98826.2384.60228 0 1.20709-.4868 1.81421-1.4605.3954-.621.6848-1.2422.8684-1.86315-.4189-.13401-.7906-.44705-1.1153-.93896z"/></g></svg>