<svg fill="none" height="22" viewBox="0 0 18 22" width="18" xmlns="http://www.w3.org/2000/svg"><g fill="#fff"><path d="m11.8164 4.12447c.5194-.54801.9026-1.14823 1.15-1.80091.239-.65268.3585-1.24421.3585-1.775276 0-.034562-.0021-.078563-.0062-.130544-.0043-.051981-.0061-.095232-.0061-.130544-.0083-.026108-.0186-.073981-.031-.143855-.0123-.0693596-.0226-.1172322-.0309-.143341-1.4508.356793-2.481 1.00078-3.0909 1.93193-.61825.93964-.93976 2.05789-.96449 3.35452.55206-.05246.98069-.12592 1.28599-.22167.4451-.15709.89-.47015 1.3351-.94031z"/><path d="m16.0197 14.2144c-.5688-.861-.8532-1.8313-.8532-2.9109 0-.9831.2677-1.8836.8037-2.70186.2885-.44357.7584-.95702 1.4096-1.54034-.4286-.55669-.8573-.99157-1.2859-1.30535-.7749-.56496-1.6528-.84848-2.6335-.84848-.5853 0-1.2983.14844-2.1391.44409-.8079.29612-1.39726.44357-1.768.44357-.28024 0-.84902-.13055-1.70634-.39159-.86552-.26109-1.59481-.39163-2.18836-.39163-1.41783 0-2.58836.62657-3.51138 1.87994-.93148 1.27056-1.39722 2.89764-1.39722 4.88155 0 2.1058.60586 4.2942 1.81765 6.5657 1.22803 2.2537 2.46859 3.3804 3.72158 3.3804.42039 0 .96421-.1479 1.63192-.4435.6677-.2872 1.25272-.4308 1.75558-.4308.53577 0 1.15797.1393 1.86707.4175.7499.2785 1.327.4175 1.7309.4175 1.0549 0 2.1141-.8527 3.1775-2.5581.6924-1.0875 1.1994-2.1756 1.5209-3.2631-.7336-.2347-1.3846-.783-1.9534-1.6446z"/></g></svg>