<svg width="12" height="13" viewBox="0 0 12 13" fill="none" xmlns="http://www.w3.org/2000/svg">
<path fill-rule="evenodd" clip-rule="evenodd" d="M6.33996 6.83367L8.14923 8.64293L1.75955 12.1928C1.47222 12.3524 1.16008 12.3734 0.882746 12.2909L6.33996 6.83367ZM6.33996 5.67025L0.927175 0.25746C1.19313 0.18982 1.48747 0.216684 1.75955 0.367841L8.11279 3.89742L6.33996 5.67025ZM6.92167 6.25196L8.8607 4.31293L10.6041 5.2815C11.3877 5.71683 11.3877 6.84377 10.6041 7.2791L8.89714 8.22743L6.92167 6.25196ZM5.75826 6.25196L0.225071 11.7851C0.122477 11.6159 0.0620804 11.4153 0.0620804 11.194L0.0620813 1.36664C0.0620813 1.12998 0.131143 0.916973 0.247011 0.740712L5.75826 6.25196Z" fill="white"/>
</svg>
