<svg width="111" height="17" viewBox="0 0 111 17" fill="none" xmlns="http://www.w3.org/2000/svg">
<path d="M0 0.143258H1.74422V15.3287H10.9839V16.8567H0V0.143258Z" fill="white"/>
<path d="M28.2804 12.3919H19.0879L17.108 16.8567H15.293L22.8356 0.143258H24.5562L32.0988 16.8567H30.2603L28.2804 12.3919ZM27.644 10.9593L23.6841 1.98174L19.7243 10.9593H27.644Z" fill="white"/>
<path d="M43.3843 17C42.1586 17 40.9801 16.801 39.8487 16.4031C38.733 16.0051 37.8688 15.4799 37.256 14.8272L37.9395 13.4663C38.5366 14.0712 39.3302 14.5646 40.3201 14.9466C41.3101 15.3127 42.3315 15.4958 43.3843 15.4958C44.8614 15.4958 45.9692 15.2252 46.7077 14.684C47.4463 14.1269 47.8156 13.4106 47.8156 12.5351C47.8156 11.8666 47.6113 11.3333 47.2027 10.9354C46.8099 10.5375 46.3228 10.235 45.7413 10.0281C45.1599 9.80524 44.3507 9.56648 43.3136 9.3118C42.0722 8.99345 41.0822 8.69101 40.3437 8.40449C39.6052 8.10206 38.9688 7.64841 38.4345 7.04354C37.9159 6.43867 37.6567 5.61891 37.6567 4.58427C37.6567 3.74064 37.8767 2.97659 38.3166 2.29214C38.7566 1.59176 39.4323 1.03464 40.3437 0.620787C41.2551 0.206929 42.3865 0 43.7379 0C44.6807 0 45.5999 0.1353 46.4956 0.405899C47.407 0.66058 48.1927 1.01873 48.8527 1.48034L48.2634 2.88904C47.572 2.42743 46.8334 2.08521 46.0478 1.86236C45.2621 1.6236 44.4921 1.50421 43.7379 1.50421C42.2922 1.50421 41.2001 1.79073 40.4615 2.36376C39.7387 2.92088 39.3773 3.64513 39.3773 4.53652C39.3773 5.20506 39.5737 5.74625 39.9666 6.16011C40.3751 6.55805 40.878 6.86844 41.4751 7.09129C42.0879 7.29822 42.905 7.52903 43.9264 7.78371C45.1364 8.08614 46.1106 8.38857 46.8492 8.69101C47.6034 8.97753 48.2398 9.42322 48.7584 10.0281C49.2769 10.617 49.5362 11.4209 49.5362 12.4396C49.5362 13.2832 49.3083 14.0552 48.8527 14.7556C48.4127 15.4401 47.7291 15.9892 46.802 16.4031C45.8749 16.801 44.7357 17 43.3843 17Z" fill="white"/>
<path d="M71.1323 0.143258V16.8567H69.4117V9.14466H59.0878V16.8567H57.3436V0.143258H59.0878V7.5927H69.4117V0.143258H71.1323Z" fill="white"/>
<path d="M92.192 15.3287V16.8567H80.5246V0.143258H91.8385V1.67135H82.2688V7.61657H90.8014V9.12079H82.2688V15.3287H92.192Z" fill="white"/>
<path d="M104.848 17C103.622 17 102.444 16.801 101.313 16.4031C100.197 16.0051 99.3326 15.4799 98.7198 14.8272L99.4033 13.4663C100 14.0712 100.794 14.5646 101.784 14.9466C102.774 15.3127 103.795 15.4958 104.848 15.4958C106.325 15.4958 107.433 15.2252 108.172 14.684C108.91 14.1269 109.279 13.4106 109.279 12.5351C109.279 11.8666 109.075 11.3333 108.667 10.9354C108.274 10.5375 107.787 10.235 107.205 10.0281C106.624 9.80524 105.814 9.56648 104.777 9.3118C103.536 8.99345 102.546 8.69101 101.808 8.40449C101.069 8.10206 100.433 7.64841 99.8983 7.04354C99.3797 6.43867 99.1205 5.61891 99.1205 4.58427C99.1205 3.74064 99.3405 2.97659 99.7804 2.29214C100.22 1.59176 100.896 1.03464 101.808 0.620787C102.719 0.206929 103.85 0 105.202 0C106.144 0 107.064 0.1353 107.959 0.405899C108.871 0.66058 109.656 1.01873 110.316 1.48034L109.727 2.88904C109.036 2.42743 108.297 2.08521 107.512 1.86236C106.726 1.6236 105.956 1.50421 105.202 1.50421C103.756 1.50421 102.664 1.79073 101.925 2.36376C101.203 2.92088 100.841 3.64513 100.841 4.53652C100.841 5.20506 101.038 5.74625 101.43 6.16011C101.839 6.55805 102.342 6.86844 102.939 7.09129C103.552 7.29822 104.369 7.52903 105.39 7.78371C106.6 8.08614 107.574 8.38857 108.313 8.69101C109.067 8.97753 109.704 9.42322 110.222 10.0281C110.741 10.617 111 11.4209 111 12.4396C111 13.2832 110.772 14.0552 110.316 14.7556C109.876 15.4401 109.193 15.9892 108.266 16.4031C107.339 16.801 106.199 17 104.848 17Z" fill="white"/>
</svg>
