<svg fill="none" height="17" viewBox="0 0 111 17" width="111" xmlns="http://www.w3.org/2000/svg"><g fill="#fff"><path d="m0 .143258h1.74422v15.185442h9.23968v1.528h-10.9839z"/><path d="m28.2804 12.3919h-9.1925l-1.9799 4.4648h-1.815l7.5426-16.713442h1.7206l7.5426 16.713442h-1.8385zm-.6364-1.4326-3.9599-8.97756-3.9598 8.97756z"/><path d="m43.3843 17c-1.2257 0-2.4042-.199-3.5356-.5969-1.1157-.398-1.9799-.9232-2.5927-1.5759l.6835-1.3609c.5971.6049 1.3907 1.0983 2.3806 1.4803.99.3661 2.0114.5492 3.0642.5492 1.4771 0 2.5849-.2706 3.3234-.8118.7386-.5571 1.1079-1.2734 1.1079-2.1489 0-.6685-.2043-1.2018-.6129-1.5997-.3928-.3979-.8799-.7004-1.4614-.9073-.5814-.22286-1.3906-.46162-2.4277-.7163-1.2414-.31835-2.2314-.62079-2.9699-.90731-.7385-.30243-1.3749-.75608-1.9092-1.36095-.5186-.60487-.7778-1.42463-.7778-2.45927 0-.84363.22-1.60768.6599-2.29213.44-.70038 1.1157-1.2575 2.0271-1.671353.9114-.413858 2.0428-.620787 3.3942-.620787.9428 0 1.862.1353 2.7577.405899.9114.254681 1.6971.612831 2.3571 1.074441l-.5893 1.4087c-.6914-.46161-1.43-.80383-2.2156-1.02668-.7857-.23876-1.5557-.35815-2.3099-.35815-1.4457 0-2.5378.28652-3.2764.85955-.7228.55712-1.0842 1.28137-1.0842 2.17276 0 .66854.1964 1.20973.5893 1.62359.4085.39794.9114.70833 1.5085.93118.6128.20693 1.4299.43774 2.4513.69242 1.21.30243 2.1842.60486 2.9228.9073.7542.28652 1.3906.73221 1.9092 1.33709.5185.5889.7778 1.3928.7778 2.4115 0 .8436-.2279 1.6156-.6835 2.316-.44.6845-1.1236 1.2336-2.0507 1.6475-.9271.3979-2.0663.5969-3.4177.5969z"/><path d="m71.1323.143258v16.713442h-1.7206v-7.71204h-10.3239v7.71204h-1.7442v-16.713442h1.7442v7.449442h10.3239v-7.449442z"/><path d="m92.192 15.3287v1.528h-11.6674v-16.713442h11.3139v1.528092h-9.5697v5.94522h8.5326v1.50422h-8.5326v6.20791z"/><path d="m104.848 17c-1.226 0-2.404-.199-3.535-.5969-1.116-.398-1.9804-.9232-2.5932-1.5759l.6835-1.3609c.5967.6049 1.3907 1.0983 2.3807 1.4803.99.3661 2.011.5492 3.064.5492 1.477 0 2.585-.2706 3.324-.8118.738-.5571 1.107-1.2734 1.107-2.1489 0-.6685-.204-1.2018-.612-1.5997-.393-.3979-.88-.7004-1.462-.9073-.581-.22286-1.391-.46162-2.428-.7163-1.241-.31835-2.231-.62079-2.969-.90731-.739-.30243-1.375-.75608-1.9097-1.36095-.5186-.60487-.7778-1.42463-.7778-2.45927 0-.84363.22-1.60768.6599-2.29213.4396-.70038 1.1156-1.2575 2.0276-1.671353.911-.413858 2.042-.620787 3.394-.620787.942 0 1.862.1353 2.757.405899.912.254681 1.697.612831 2.357 1.074441l-.589 1.4087c-.691-.46161-1.43-.80383-2.215-1.02668-.786-.23876-1.556-.35815-2.31-.35815-1.446 0-2.538.28652-3.277.85955-.722.55712-1.084 1.28137-1.084 2.17276 0 .66854.197 1.20973.589 1.62359.409.39794.912.70833 1.509.93118.613.20693 1.43.43774 2.451.69242 1.21.30243 2.184.60486 2.923.9073.754.28652 1.391.73221 1.909 1.33709.519.5889.778 1.3928.778 2.4115 0 .8436-.228 1.6156-.684 2.316-.44.6845-1.123 1.2336-2.05 1.6475-.927.3979-2.067.5969-3.418.5969z"/></g></svg>