<svg fill="none" height="23" viewBox="0 0 147 23" width="147" xmlns="http://www.w3.org/2000/svg"><path d="m.534.299999h2.294v19.716001h12.152v1.984h-14.446zm37.1944 15.903001h-12.09l-2.604 5.797h-2.387l9.92-21.700001h2.263l9.92 21.700001h-2.418zm-.837-1.86-5.208-11.656-5.208 11.656zm20.7017 7.843c-1.612 0-3.162-.2583-4.65-.775-1.4673-.5167-2.604-1.1987-3.41-2.046l.899-1.767c.7854.7853 1.829 1.426 3.131 1.922 1.302.4753 2.6454.713 4.03.713 1.9427 0 3.3997-.3513 4.371-1.054.9714-.7233 1.457-1.6533 1.457-2.79 0-.868-.2686-1.5603-.806-2.077-.5166-.5167-1.1573-.9093-1.922-1.178-.7646-.2893-1.829-.5993-3.193-.93-1.6326-.4133-2.9346-.806-3.906-1.178-.9713-.3927-1.8083-.9817-2.511-1.767-.682-.78533-1.023-1.84967-1.023-3.193 0-1.09533.2894-2.08733.868-2.976.5787-.90933 1.4674-1.63267 2.666-2.17 1.1987-.537334 2.6867-.806001 4.464-.806001 1.24 0 2.449.175667 3.627.527001 1.1987.330666 2.232.79567 3.1 1.395l-.775 1.829c-.9093-.59933-1.8806-1.04367-2.914-1.333-1.0333-.31-2.046-.465-3.038-.465-1.9013 0-3.3376.372-4.309 1.116-.9506.72333-1.426 1.66367-1.426 2.821 0 .868.2584 1.57067.775 2.108.5374.51667 1.1987.91967 1.984 1.209.806.26867 1.8807.56833 3.224.899 1.5914.3927 2.8727.7853 3.844 1.178.992.372 1.829.9507 2.511 1.736.682.7647 1.023 1.8083 1.023 3.131 0 1.0953-.2996 2.0977-.899 3.007-.5786.8887-1.4776 1.6017-2.697 2.139-1.2193.5167-2.7176.775-4.495.775zm36.4943-21.886001v21.700001h-2.263v-10.013h-13.578v10.013h-2.294v-21.700001h2.294v9.672001h13.578v-9.672001zm27.6976 19.716001v1.984h-15.345v-21.700001h14.88v1.984001h-12.586v7.719h11.222v1.953h-11.222v8.06zm16.645 2.17c-1.612 0-3.162-.2583-4.65-.775-1.467-.5167-2.604-1.1987-3.41-2.046l.899-1.767c.786.7853 1.829 1.426 3.131 1.922 1.302.4753 2.646.713 4.03.713 1.943 0 3.4-.3513 4.371-1.054.972-.7233 1.457-1.6533 1.457-2.79 0-.868-.268-1.5603-.806-2.077-.516-.5167-1.157-.9093-1.922-1.178-.764-.2893-1.829-.5993-3.193-.93-1.632-.4133-2.934-.806-3.906-1.178-.971-.3927-1.808-.9817-2.511-1.767-.682-.78533-1.023-1.84967-1.023-3.193 0-1.09533.29-2.08733.868-2.976.579-.90933 1.468-1.63267 2.666-2.17 1.199-.537334 2.687-.806001 4.464-.806001 1.24 0 2.449.175667 3.627.527001 1.199.330666 2.232.79567 3.1 1.395l-.775 1.829c-.909-.59933-1.88-1.04367-2.914-1.333-1.033-.31-2.046-.465-3.038-.465-1.901 0-3.337.372-4.309 1.116-.95.72333-1.426 1.66367-1.426 2.821 0 .868.259 1.57067.775 2.108.538.51667 1.199.91967 1.984 1.209.806.26867 1.881.56833 3.224.899 1.592.3927 2.873.7853 3.844 1.178.992.372 1.829.9507 2.511 1.736.682.7647 1.023 1.8083 1.023 3.131 0 1.0953-.299 2.0977-.899 3.007-.578.8887-1.477 1.6017-2.697 2.139-1.219.5167-2.717.775-4.495.775z" fill="#fff"/></svg>