<svg fill="none" height="534" viewBox="0 0 534 534" width="534" xmlns="http://www.w3.org/2000/svg"><g fill="#dcac9b"><path d="m267.001 115.952-12.159-115.463961 24.318-.000002z"/><path d="m267.001 418.048-12.159 115.464h24.318z"/><path d="m115.953 267-115.464716 12.158-.000003-24.317z"/><path d="m418.048 267 115.464 12.158v-24.317z"/><path d="m227.908 412.901-18.14 114.677-23.489-6.294z"/><path d="m306.096 121.099 41.629-108.3831-23.489-6.29383z"/><path d="m306.096 412.901 41.629 108.383-23.489 6.294z"/><path d="m227.907 121.099-18.14-114.67683-23.488 6.29383z"/><path d="m286.716 416.755 27.126 112.889-24.109 3.175z"/><path d="m247.284 117.244-3.016-116.06347-24.109 3.17406z"/><path d="m324.804 406.549 55.419 102.022-22.466 9.306z"/><path d="m209.196 127.449-32.953-111.3278-22.467 9.3058z"/><path d="m386.838 358.951 99.006 60.644-14.804 19.293z"/><path d="m147.169 175.047-84.2026-79.9359-14.8035 19.2919z"/><path d="m416.761 286.716 116.063 3.016-3.174 24.11z"/><path d="m117.251 247.285-112.88953-27.126-3.17406 24.11z"/><path d="m406.555 209.198 102.022-55.419 9.306 22.466z"/><path d="m127.456 324.804-111.3282 32.953 9.3059 22.467z"/><path d="m386.839 175.05 84.202-79.9366 14.803 19.2926z"/><path d="m147.169 358.953-99.0054 60.644 14.8035 19.292z"/><path d="m342.524 397.81 68.262 93.916-21.059 12.159z"/><path d="m191.477 136.188-47.203-106.0745-21.059 12.1587z"/><path d="m373.808 373.806 90.243 73.048-17.195 17.195z"/><path d="m160.194 160.193-73.0476-90.2434-17.1951 17.195z"/><path d="m358.952 386.835 79.937 84.202-19.293 14.803z"/><path d="m175.048 147.166-60.644-99.0054-19.2921 14.8035z"/><path d="m397.812 342.523 106.074 47.202-12.158 21.06z"/><path d="m136.189 191.475-93.916-68.262-12.1588 21.06z"/><path d="m412.901 306.093 114.677 18.14-6.294 23.489z"/><path d="m121.099 227.906-108.3829-41.629-6.2938 23.489z"/><path d="m406.553 324.805 111.328 32.953-9.306 22.466z"/><path d="m127.454 209.198-102.0223-55.42-9.3059 22.467z"/><path d="m397.812 191.476 93.916-68.262 12.159 21.059z"/><path d="m136.189 342.523-106.0744 47.203 12.1588 21.059z"/><path d="m373.807 160.193 73.048-90.2433 17.195 17.195z"/><path d="m160.193 373.806-90.2427 73.048 17.195 17.195z"/><path d="m286.715 117.246 3.016-116.06346 24.11 3.17406z"/><path d="m247.283 416.757-27.126 112.89 24.11 3.174z"/><path d="m358.954 147.167 60.645-99.0057 19.292 14.8036z"/><path d="m175.051 386.835-79.9368 84.203 19.2918 14.803z"/><path d="m342.525 136.188 47.203-106.0743 21.059 12.1587z"/><path d="m191.478 397.811-68.262 93.915 21.059 12.159z"/><path d="m342.525 136.188 47.203-106.0743 21.059 12.1587z"/><path d="m191.478 397.811-68.262 93.915 21.059 12.159z"/><path d="m324.803 127.448 32.953-111.3281 22.466 9.3059z"/><path d="m209.197 406.547-55.42 102.022 22.467 9.306z"/><path d="m412.902 227.905 108.383-41.628 6.294 23.488z"/><path d="m121.1 306.094-114.67664 18.14 6.29384 23.488z"/><path d="m416.753 247.284 112.89-27.126 3.174 24.11z"/><path d="m117.241 286.715-116.06305 3.016 3.17406 24.11z"/></g></svg>