<svg fill="none" height="199" viewBox="0 0 71 199" width="71" xmlns="http://www.w3.org/2000/svg"><g fill="#dcac9b"><path d="m100.306 43.1093-4.5487-43.0699926 9.0967-.0000008z"/><path d="m100.306 155.796-4.5487 43.07h9.0967z"/><path d="m43.8025 99.4523-43.192056 4.5357-.000001-9.071z"/><path d="m156.808 99.4523 43.192 4.5357v-9.071z"/><path d="m85.6819 153.876-6.7857 42.776-8.7865-2.348z"/><path d="m114.93 45.0291 15.572-40.42861-8.786-2.3477z"/><path d="m114.93 153.876 15.572 40.428-8.787 2.348z"/><path d="m85.6817 45.0291-6.7857-42.77627-8.7865 2.34769z"/><path d="m107.68 155.314 10.147 42.109-9.018 1.184z"/><path d="m92.9301 43.5911-1.1284-43.293483-9.0186 1.183973z"/><path d="m121.928 151.507 20.731 38.056-8.404 3.471z"/><path d="m78.6822 47.3978-12.3268-41.52709-8.4041 3.47124z"/><path d="m145.133 133.752 37.036 22.621-5.538 7.196z"/><path d="m55.4795 65.1528-31.4977-29.8176-5.5376 7.1964z"/><path d="m156.327 106.807 43.416 1.125-1.188 8.993z"/><path d="m44.2881 92.0986-42.2288-10.1184-1.187333 8.9932z"/><path d="m152.509 77.8915 38.164-20.6723 3.481 8.3803z"/><path d="m48.1055 121.014-41.64473 12.292 3.48108 8.381z"/><path d="m145.134 65.1536 31.497-29.8175 5.538 7.1963z"/><path d="m55.4798 133.752-37.0353 22.622 5.5376 7.196z"/><path d="m128.557 148.247 25.535 35.032-7.878 4.535z"/><path d="m72.054 50.6575-17.6571-39.5674-7.8778 4.5354z"/><path d="m140.259 139.293 33.758 27.248-6.433 6.414z"/><path d="m60.3521 59.6117-27.3252-33.6621-6.4322 6.414z"/><path d="m134.702 144.153 29.902 31.409-7.217 5.521z"/><path d="m65.9085 54.7527-22.6852-36.9308-7.2168 5.522z"/><path d="m149.238 127.624 39.68 17.607-4.548 7.856z"/><path d="m51.3722 71.2806-35.1313-25.4627-4.5482 7.8555z"/><path d="m154.883 114.035 42.897 6.766-2.354 8.762z"/><path d="m45.7277 84.8696-40.54316-15.5282-2.35434 8.7618z"/><path d="m152.508 121.015 41.645 12.292-3.481 8.38z"/><path d="m48.1048 77.8914-38.16373-20.6723-3.48107 8.3803z"/><path d="m149.238 71.2807 35.132-25.4628 4.548 7.8556z"/><path d="m51.3724 127.624-39.6795 17.607 4.5482 7.856z"/><path d="m140.259 59.6117 27.325-33.6621 6.432 6.414z"/><path d="m60.3517 139.293-33.7574 27.248 6.4322 6.414z"/><path d="m107.68 43.5919 1.128-43.293534 9.019 1.183974z"/><path d="m92.9296 155.314-10.1471 42.11 9.0187 1.184z"/><path d="m134.703 54.7529 22.685-36.9307 7.217 5.522z"/><path d="m65.9094 144.153-29.902 31.409 7.2167 5.522z"/><path d="m128.557 50.6576 17.657-39.5674 7.878 4.5354z"/><path d="m72.0544 148.247-25.5349 35.032 7.8777 4.535z"/><path d="m128.557 50.6576 17.657-39.5674 7.878 4.5354z"/><path d="m72.0544 148.247-25.5349 35.032 7.8777 4.535z"/><path d="m121.928 47.3974 12.327-41.52716 8.404 3.47124z"/><path d="m78.6826 151.506-20.7309 38.056 8.4041 3.471z"/><path d="m154.883 84.8696 40.543-15.5282 2.355 8.7617z"/><path d="m45.7281 114.035-42.89751 6.767 2.35434 8.761z"/><path d="m156.324 92.0981 42.229-10.1183 1.187 8.9932z"/><path d="m44.2846 106.806-43.416171 1.126 1.187331 8.993z"/></g></svg>