<svg width="71" height="199" viewBox="0 0 71 199" fill="none" xmlns="http://www.w3.org/2000/svg">
<path d="M100.306 43.1093L95.7573 0.0393074L104.854 0.0393066L100.306 43.1093Z" fill="#DCAC9B"/>
<path d="M100.306 155.796L95.7573 198.866H104.854L100.306 155.796Z" fill="#DCAC9B"/>
<path d="M43.8025 99.4523L0.610444 103.988L0.610443 94.917L43.8025 99.4523Z" fill="#DCAC9B"/>
<path d="M156.808 99.4523L200 103.988V94.917L156.808 99.4523Z" fill="#DCAC9B"/>
<path d="M85.6819 153.876L78.8962 196.652L70.1097 194.304L85.6819 153.876Z" fill="#DCAC9B"/>
<path d="M114.93 45.0291L130.502 4.60049L121.716 2.25279L114.93 45.0291Z" fill="#DCAC9B"/>
<path d="M114.93 153.876L130.502 194.304L121.715 196.652L114.93 153.876Z" fill="#DCAC9B"/>
<path d="M85.6817 45.0291L78.896 2.25283L70.1095 4.60052L85.6817 45.0291Z" fill="#DCAC9B"/>
<path d="M107.68 155.314L117.827 197.423L108.809 198.607L107.68 155.314Z" fill="#DCAC9B"/>
<path d="M92.9301 43.5911L91.8017 0.297617L82.7831 1.48159L92.9301 43.5911Z" fill="#DCAC9B"/>
<path d="M121.928 151.507L142.659 189.563L134.255 193.034L121.928 151.507Z" fill="#DCAC9B"/>
<path d="M78.6822 47.3978L66.3554 5.87071L57.9513 9.34195L78.6822 47.3978Z" fill="#DCAC9B"/>
<path d="M145.133 133.752L182.169 156.373L176.631 163.569L145.133 133.752Z" fill="#DCAC9B"/>
<path d="M55.4795 65.1528L23.9818 35.3352L18.4442 42.5316L55.4795 65.1528Z" fill="#DCAC9B"/>
<path d="M156.327 106.807L199.743 107.932L198.555 116.925L156.327 106.807Z" fill="#DCAC9B"/>
<path d="M44.2881 92.0986L2.0593 81.9802L0.871967 90.9734L44.2881 92.0986Z" fill="#DCAC9B"/>
<path d="M152.509 77.8915L190.673 57.2192L194.154 65.5995L152.509 77.8915Z" fill="#DCAC9B"/>
<path d="M48.1055 121.014L6.46077 133.306L9.94185 141.687L48.1055 121.014Z" fill="#DCAC9B"/>
<path d="M145.134 65.1536L176.631 35.3361L182.169 42.5324L145.134 65.1536Z" fill="#DCAC9B"/>
<path d="M55.4798 133.752L18.4445 156.374L23.9821 163.57L55.4798 133.752Z" fill="#DCAC9B"/>
<path d="M128.557 148.247L154.092 183.279L146.214 187.814L128.557 148.247Z" fill="#DCAC9B"/>
<path d="M72.054 50.6575L54.3969 11.0901L46.5191 15.6255L72.054 50.6575Z" fill="#DCAC9B"/>
<path d="M140.259 139.293L174.017 166.541L167.584 172.955L140.259 139.293Z" fill="#DCAC9B"/>
<path d="M60.3521 59.6117L33.0269 25.9496L26.5947 32.3636L60.3521 59.6117Z" fill="#DCAC9B"/>
<path d="M134.702 144.153L164.604 175.562L157.387 181.083L134.702 144.153Z" fill="#DCAC9B"/>
<path d="M65.9085 54.7527L43.2233 17.8219L36.0065 23.3439L65.9085 54.7527Z" fill="#DCAC9B"/>
<path d="M149.238 127.624L188.918 145.231L184.37 153.087L149.238 127.624Z" fill="#DCAC9B"/>
<path d="M51.3722 71.2806L16.2409 45.8179L11.6927 53.6734L51.3722 71.2806Z" fill="#DCAC9B"/>
<path d="M154.883 114.035L197.78 120.801L195.426 129.563L154.883 114.035Z" fill="#DCAC9B"/>
<path d="M45.7277 84.8696L5.18454 69.3414L2.8302 78.1032L45.7277 84.8696Z" fill="#DCAC9B"/>
<path d="M152.508 121.015L194.153 133.307L190.672 141.687L152.508 121.015Z" fill="#DCAC9B"/>
<path d="M48.1048 77.8914L9.94107 57.2191L6.46 65.5994L48.1048 77.8914Z" fill="#DCAC9B"/>
<path d="M149.238 71.2807L184.37 45.8179L188.918 53.6735L149.238 71.2807Z" fill="#DCAC9B"/>
<path d="M51.3724 127.624L11.6929 145.231L16.2411 153.087L51.3724 127.624Z" fill="#DCAC9B"/>
<path d="M140.259 59.6117L167.584 25.9496L174.016 32.3636L140.259 59.6117Z" fill="#DCAC9B"/>
<path d="M60.3517 139.293L26.5943 166.541L33.0265 172.955L60.3517 139.293Z" fill="#DCAC9B"/>
<path d="M107.68 43.5919L108.808 0.298366L117.827 1.48234L107.68 43.5919Z" fill="#DCAC9B"/>
<path d="M92.9296 155.314L82.7825 197.424L91.8012 198.608L92.9296 155.314Z" fill="#DCAC9B"/>
<path d="M134.703 54.7529L157.388 17.8222L164.605 23.3442L134.703 54.7529Z" fill="#DCAC9B"/>
<path d="M65.9094 144.153L36.0074 175.562L43.2241 181.084L65.9094 144.153Z" fill="#DCAC9B"/>
<path d="M128.557 50.6576L146.214 11.0902L154.092 15.6256L128.557 50.6576Z" fill="#DCAC9B"/>
<path d="M72.0544 148.247L46.5195 183.279L54.3972 187.814L72.0544 148.247Z" fill="#DCAC9B"/>
<path d="M128.557 50.6576L146.214 11.0902L154.092 15.6256L128.557 50.6576Z" fill="#DCAC9B"/>
<path d="M72.0544 148.247L46.5195 183.279L54.3972 187.814L72.0544 148.247Z" fill="#DCAC9B"/>
<path d="M121.928 47.3974L134.255 5.87024L142.659 9.34148L121.928 47.3974Z" fill="#DCAC9B"/>
<path d="M78.6826 151.506L57.9517 189.562L66.3558 193.033L78.6826 151.506Z" fill="#DCAC9B"/>
<path d="M154.883 84.8696L195.426 69.3414L197.781 78.1031L154.883 84.8696Z" fill="#DCAC9B"/>
<path d="M45.7281 114.035L2.83059 120.802L5.18493 129.563L45.7281 114.035Z" fill="#DCAC9B"/>
<path d="M156.324 92.0981L198.553 81.9798L199.74 90.973L156.324 92.0981Z" fill="#DCAC9B"/>
<path d="M44.2846 106.806L0.868429 107.932L2.05576 116.925L44.2846 106.806Z" fill="#DCAC9B"/>
</svg>
