<svg width="80" height="80" viewBox="0 0 80 80" fill="none" xmlns="http://www.w3.org/2000/svg">
<g clip-path="url(#clip0_476:3162)">
<path d="M20.8318 61.7705C15.4953 61.7705 10.7485 58.3537 9.02485 53.2669L8.90827 52.8836C8.50177 51.5365 8.33147 50.4037 8.33147 49.2702V26.5426L0.244728 53.5367C-0.795337 57.5071 1.57472 61.6234 5.55125 62.7202L57.0961 76.5243C57.7394 76.6909 58.3828 76.7709 59.0163 76.7709C62.3361 76.7709 65.3696 74.5675 66.2199 71.3203L69.2229 61.7705H20.8318Z" fill="white"/>
<path d="M29.9991 26.7697C33.6759 26.7697 36.6655 23.7796 36.6655 20.1027C36.6655 16.4259 33.6759 13.4357 29.9991 13.4357C26.3222 13.4357 23.332 16.4259 23.332 20.1027C23.332 23.7796 26.3222 26.7697 29.9991 26.7697Z" fill="white"/>
<path d="M71.6661 3.43542H21.6649C17.0719 3.43542 13.3315 7.17575 13.3315 11.7694V48.4365C13.3315 53.0302 17.0719 56.7705 21.6649 56.7705H71.6661C76.2597 56.7705 80.0001 53.0302 80.0001 48.4365V11.7694C80.0001 7.17575 76.2597 3.43542 71.6661 3.43542ZM21.6649 10.1025H71.6661C72.5865 10.1025 73.333 10.8489 73.333 11.7694V35.4333L62.803 23.146C61.686 21.8361 60.0691 21.1361 58.3326 21.0964C56.6059 21.1061 54.986 21.8728 53.8794 23.1997L41.4987 38.0597L37.4654 34.0362C35.1857 31.7564 31.4753 31.7564 29.1986 34.0362L19.9986 43.2332V11.7694C19.9986 10.8489 20.7451 10.1025 21.6649 10.1025Z" fill="white"/>
</g>
<defs>
<clipPath id="clip0_476:3162">
<rect width="80" height="80" fill="white"/>
</clipPath>
</defs>
</svg>
