<svg width="104" height="18" viewBox="0 0 104 18" fill="none" xmlns="http://www.w3.org/2000/svg">
<path d="M4.02545 10.4402H7.45794L7.03476 12.7755H0.514597L2.47378 1.72572H5.54578L4.02545 10.4402ZM11.4247 3.16768C10.944 3.16768 10.5626 3.04751 10.2805 2.80719C10.0088 2.56686 9.873 2.25862 9.873 1.88245C9.873 1.54808 9.96182 1.23984 10.1395 0.957718C10.3275 0.665146 10.5783 0.435268 10.8918 0.268085C11.2157 0.0904521 11.5762 0.00163568 11.9732 0.00163568C12.4539 0.00163568 12.8301 0.127024 13.1017 0.3778C13.3839 0.618126 13.5249 0.931596 13.5249 1.31821C13.5249 1.65257 13.4309 1.96082 13.2428 2.24294C13.0652 2.52506 12.8144 2.74972 12.4905 2.9169C12.1666 3.08408 11.8113 3.16768 11.4247 3.16768ZM12.8039 3.9827L11.2523 12.7755H8.1646L9.73194 3.9827H12.8039ZM20.2722 3.90433C21.129 3.90433 21.7978 4.1551 22.2784 4.65666C22.7695 5.14776 23.0151 5.83217 23.0151 6.70988C23.0151 7.00245 22.9837 7.31592 22.921 7.65029L22.012 12.7755H18.94L19.7707 8.0578C19.802 7.90106 19.8177 7.76 19.8177 7.63462C19.8177 7.25845 19.708 6.96588 19.4886 6.7569C19.2796 6.54792 18.9818 6.44343 18.5952 6.44343C18.1563 6.44343 17.7854 6.57927 17.4824 6.85094C17.1793 7.12261 16.9756 7.49878 16.8711 7.97943L16.0247 12.7755H12.937L14.5044 3.9827H17.5764L17.357 5.23657C17.7018 4.83951 18.125 4.52082 18.6265 4.28049C19.1281 4.02972 19.6766 3.90433 20.2722 3.90433ZM30.1375 8.40262L32.8803 12.7755H29.1343L27.3632 9.18629L26.7206 12.7755H23.633L25.6862 1.17715H28.7739L27.6767 7.41519L30.7017 3.9827H34.385L30.1375 8.40262ZM37.5719 12.8852C36.8405 12.8852 36.1874 12.7755 35.6128 12.5561C35.0381 12.3367 34.5888 12.0284 34.2648 11.6313C33.9409 11.2238 33.779 10.7589 33.779 10.2364C33.779 10.1424 33.7894 10.0013 33.8103 9.81323H36.7726C36.7621 10.1058 36.851 10.3305 37.039 10.4872C37.2271 10.6439 37.4883 10.7223 37.8227 10.7223C38.0839 10.7223 38.2981 10.67 38.4653 10.5656C38.643 10.4611 38.7318 10.3252 38.7318 10.158C38.7318 9.95951 38.6221 9.808 38.4026 9.70351C38.1832 9.58857 37.8175 9.44751 37.3055 9.28033C36.7099 9.09225 36.2188 8.90939 35.8322 8.73176C35.4456 8.55413 35.106 8.2929 34.8134 7.94808C34.5313 7.60327 34.3902 7.15919 34.3902 6.61584C34.3902 6.09339 34.5417 5.62319 34.8448 5.20523C35.1582 4.78727 35.5971 4.46335 36.1613 4.23347C36.7256 3.99315 37.3786 3.87298 38.1205 3.87298C38.9146 3.87298 39.599 4.00882 40.1737 4.28049C40.7589 4.54172 41.1925 4.90743 41.4746 5.37764C41.7672 5.84784 41.8978 6.37029 41.8665 6.94498H39.1079C39.1184 6.66286 39.0348 6.44343 38.8572 6.2867C38.6795 6.11951 38.4235 6.03592 38.0892 6.03592C37.8488 6.03592 37.6503 6.08817 37.4936 6.19266C37.3368 6.29715 37.2585 6.43298 37.2585 6.60017C37.2585 6.7987 37.3682 6.95543 37.5876 7.07037C37.8175 7.18531 38.1989 7.33159 38.7318 7.50923C39.3169 7.69731 39.8028 7.88539 40.1894 8.07347C40.5865 8.2511 40.9261 8.5071 41.2082 8.84147C41.4903 9.16539 41.6314 9.58335 41.6314 10.0953C41.6314 10.9626 41.2552 11.647 40.5029 12.1486C39.7506 12.6397 38.7736 12.8852 37.5719 12.8852ZM46.7446 9.48408C46.7341 9.53633 46.7289 9.59902 46.7289 9.67217C46.7289 9.83935 46.7759 9.96474 46.87 10.0483C46.9745 10.1215 47.1417 10.158 47.3715 10.158H48.2649L47.7947 12.7755H46.4468C44.5346 12.7755 43.5786 11.9709 43.5786 10.3618C43.5786 10.0901 43.6099 9.78188 43.6726 9.43706L44.1898 6.53747H43.1083L43.5629 3.9827H44.6443L45.0205 1.85111H48.1082L47.732 3.9827H49.315L48.8605 6.53747H47.2775L46.7446 9.48408ZM49.4212 8.37127C49.5884 7.46221 49.8966 6.66808 50.3459 5.9889C50.7952 5.30972 51.3334 4.78727 51.9603 4.42155C52.5977 4.05584 53.2664 3.87298 53.9665 3.87298C54.5726 3.87298 55.0741 3.99315 55.4712 4.23347C55.8682 4.4738 56.1451 4.79772 56.3019 5.20523L56.5213 3.9827H59.5933L58.0416 12.7755H54.9696L55.189 11.553C54.886 11.9605 54.489 12.2844 53.9979 12.5247C53.5068 12.7651 52.9634 12.8852 52.3678 12.8852C51.4483 12.8852 50.7117 12.5822 50.1579 11.9762C49.6041 11.3597 49.3272 10.5238 49.3272 9.46841C49.3272 9.12359 49.3585 8.75788 49.4212 8.37127ZM55.7533 8.37127C55.7846 8.21453 55.8003 8.06825 55.8003 7.93241C55.8003 7.49355 55.6749 7.15396 55.4241 6.91364C55.1838 6.67331 54.8703 6.55315 54.4837 6.55315C54.024 6.55315 53.6112 6.7151 53.2455 7.03902C52.8798 7.35249 52.6499 7.79657 52.5559 8.37127C52.5246 8.528 52.5089 8.67951 52.5089 8.8258C52.5089 9.26466 52.629 9.60425 52.8694 9.84457C53.1201 10.0849 53.4388 10.2051 53.8254 10.2051C54.2852 10.2051 54.6979 10.0431 55.0637 9.71919C55.4294 9.39527 55.6592 8.94596 55.7533 8.37127ZM64.5706 3.87298C65.1662 3.87298 65.6625 3.99315 66.0596 4.23347C66.4671 4.4738 66.7492 4.79772 66.9059 5.20523L67.1254 3.9827H70.1974L68.6614 12.6815C68.5151 13.5069 68.2277 14.2488 67.7993 14.9071C67.3709 15.5758 66.791 16.1087 66.0596 16.5058C65.3281 16.9029 64.4557 17.1014 63.4421 17.1014C62.1569 17.1014 61.159 16.8088 60.4485 16.2237C59.7484 15.649 59.3983 14.8601 59.3983 13.857L59.414 13.5435H62.439C62.4599 13.8256 62.5801 14.0451 62.7995 14.2018C63.0294 14.3585 63.3376 14.4369 63.7242 14.4369C64.7691 14.4369 65.3908 13.8518 65.5894 12.6815L65.7931 11.553C65.4901 11.9605 65.093 12.2844 64.6019 12.5247C64.1213 12.7651 63.5832 12.8852 62.9876 12.8852C62.0681 12.8852 61.3262 12.5822 60.7619 11.9762C60.2081 11.3597 59.9312 10.5238 59.9312 9.46841C59.9312 9.12359 59.9626 8.75788 60.0253 8.37127C60.1925 7.46221 60.5007 6.66808 60.95 5.9889C61.3993 5.30972 61.9374 4.78727 62.5644 4.42155C63.2018 4.05584 63.8705 3.87298 64.5706 3.87298ZM66.3574 8.37127C66.3887 8.21453 66.4044 8.06825 66.4044 7.93241C66.4044 7.49355 66.279 7.15396 66.0282 6.91364C65.7879 6.67331 65.4744 6.55315 65.0878 6.55315C64.6281 6.55315 64.2153 6.7151 63.8496 7.03902C63.4839 7.35249 63.254 7.79657 63.16 8.37127C63.1286 8.528 63.113 8.67951 63.113 8.8258C63.113 9.26466 63.2331 9.60425 63.4734 9.84457C63.7242 10.0849 64.0429 10.2051 64.4295 10.2051C64.8893 10.2051 65.302 10.0431 65.6677 9.71919C66.0334 9.39527 66.2633 8.94596 66.3574 8.37127ZM74.7045 5.58139C75.1329 5.06939 75.6188 4.66188 76.1621 4.35886C76.7054 4.05584 77.2592 3.90433 77.8235 3.90433L77.2592 7.18008H76.3972C75.7494 7.18008 75.2426 7.30025 74.8769 7.54057C74.5112 7.7809 74.2656 8.19886 74.1402 8.79445L73.4349 12.7755H70.3472L71.9146 3.9827H74.9866L74.7045 5.58139ZM77.5906 8.37127C77.7578 7.46221 78.066 6.66808 78.5153 5.9889C78.9646 5.30972 79.5028 4.78727 80.1297 4.42155C80.7671 4.05584 81.4358 3.87298 82.1359 3.87298C82.7419 3.87298 83.2435 3.99315 83.6406 4.23347C84.0376 4.4738 84.3145 4.79772 84.4712 5.20523L84.6907 3.9827H87.7627L86.211 12.7755H83.139L83.3584 11.553C83.0554 11.9605 82.6583 12.2844 82.1672 12.5247C81.6761 12.7651 81.1328 12.8852 80.5372 12.8852C79.6177 12.8852 78.881 12.5822 78.3272 11.9762C77.7734 11.3597 77.4966 10.5238 77.4966 9.46841C77.4966 9.12359 77.5279 8.75788 77.5906 8.37127ZM83.9227 8.37127C83.954 8.21453 83.9697 8.06825 83.9697 7.93241C83.9697 7.49355 83.8443 7.15396 83.5935 6.91364C83.3532 6.67331 83.0397 6.55315 82.6531 6.55315C82.1934 6.55315 81.7806 6.7151 81.4149 7.03902C81.0492 7.35249 80.8193 7.79657 80.7253 8.37127C80.6939 8.528 80.6783 8.67951 80.6783 8.8258C80.6783 9.26466 80.7984 9.60425 81.0388 9.84457C81.2895 10.0849 81.6082 10.2051 81.9948 10.2051C82.4546 10.2051 82.8673 10.0431 83.233 9.71919C83.5988 9.39527 83.8286 8.94596 83.9227 8.37127ZM100.969 3.90433C101.919 3.90433 102.651 4.1551 103.163 4.65666C103.685 5.15821 103.947 5.85306 103.947 6.74123C103.947 7.08604 103.92 7.38906 103.868 7.65029L102.959 12.7755H99.9028L100.733 8.0578C100.754 7.89062 100.765 7.77568 100.765 7.71298C100.765 7.34727 100.655 7.06515 100.436 6.86662C100.227 6.66808 99.9289 6.56882 99.5423 6.56882C99.1243 6.56882 98.7638 6.68376 98.4608 6.91364C98.1682 7.13306 97.9697 7.44653 97.8652 7.85404L96.9875 12.7755H93.9155L94.7462 8.0578C94.7671 7.97421 94.7775 7.84882 94.7775 7.68164C94.7775 7.32637 94.6678 7.0547 94.4484 6.86662C94.2394 6.66808 93.9468 6.56882 93.5707 6.56882C93.1318 6.56882 92.7609 6.69421 92.4579 6.94498C92.1548 7.18531 91.9511 7.53013 91.8466 7.97943L91.0002 12.7755H87.9126L89.4799 3.9827H92.5519L92.3481 5.12686C92.6721 4.7507 93.0691 4.4529 93.5393 4.23347C94.02 4.01404 94.5477 3.90433 95.1223 3.90433C95.7702 3.90433 96.3188 4.04539 96.7681 4.32751C97.2278 4.60964 97.557 5.0067 97.7555 5.5187C98.1525 5.03804 98.6332 4.65143 99.1974 4.35886C99.7617 4.05584 100.352 3.90433 100.969 3.90433Z" fill="#010101"/>
</svg>
