<svg width="20" height="16" viewBox="0 0 20 16" fill="none" xmlns="http://www.w3.org/2000/svg">
<path d="M1.75 7C1.19772 7 0.75 7.44772 0.75 8C0.75 8.55228 1.19772 9 1.75 9V7ZM19 8L19.7071 8.70711C20.0976 8.31658 20.0976 7.68342 19.7071 7.29289L19 8ZM12.9571 0.542893C12.5666 0.152369 11.9334 0.152369 11.5429 0.542893C11.1524 0.933417 11.1524 1.56658 11.5429 1.95711L12.9571 0.542893ZM11.5429 14.0429C11.1524 14.4334 11.1524 15.0666 11.5429 15.4571C11.9334 15.8476 12.5666 15.8476 12.9571 15.4571L11.5429 14.0429ZM1.75 9H19V7H1.75V9ZM19.7071 7.29289L12.9571 0.542893L11.5429 1.95711L18.2929 8.70711L19.7071 7.29289ZM18.2929 7.29289L11.5429 14.0429L12.9571 15.4571L19.7071 8.70711L18.2929 7.29289Z" fill="#010101"/>
</svg>
